# xmcd
# 
# Track frame offsets:
#     150
#     25225
#     49805
#     68762
#     84052
#     106050
#     120437
#     137470
#     155155
#     169187
#     194700
#     210687
#     226775
#     247305
#     264725
#     289257
#     310107
#     327627
# 
# Disc length: 4605
# 
# Revision: 2
# Processed by: cddbd v1.5.2PL0 Copyright (c) Steve Scherf et al.
# Submitted via: BonkEnc v1.0.8
# 
DISCID=0511fb12
DTITLE=Various Artist - MEGA HITS '80s - 04
DYEAR=1994
DGENRE=Rock
TTITLE0=Toto - Rosanna
TTITLE1=Journey - Separate Ways (World's Apart)
TTITLE2=Journey - Don't Stop Believing
TTITLE3=REO Speedwagon - Keep On Loving You
TTITLE4=REO Speedwagon - Can't Fight This Feeling
TTITLE5=Cheap Trick - I Want You To Want Me
TTITLE6=Men At Work - Down Under
TTITLE7=Nena - 99 Luftballons
TTITLE8=Bangles - Manic Monday
TTITLE9=Earth Wind and Fire - Let's Groove
TTITLE10=Gloria Estefan And Miami Sound Machine - 1-2-3
TTITLE11=Teri Desario - Overnight Success
TTITLE12=Bonnie Tyler - Total Eclipse Of The Heart
TTITLE13=Steve Perry - Oh Sherrie
TTITLE14=Paul Young - Everytime You Go Away
TTITLE15=Maurice White - I Need You
TTITLE16=Ann Wilson and Mike Reno - Almost Paradise... Love Theme From Footloose
TTITLE17=Bangles - Eternal Flame
EXTD=YEAR: 1994
EXTT0=
EXTT1=
EXTT2=
EXTT3=
EXTT4=
EXTT5=
EXTT6=
EXTT7=
EXTT8=
EXTT9=
EXTT10=
EXTT11=
EXTT12=
EXTT13=
EXTT14=
EXTT15=
EXTT16=
EXTT17=
PLAYORDER=
